<svg xmlns="http://www.w3.org/2000/svg" width="512" height="512" viewBox="0 0 512 512"><rect width="512" height="512" fill="#C0362C" class="bg"/><path fill="#F4EFE6" d="M351.00 -75.00Q386.00 -101.00 404.00 -128.50Q422.00 -156.00 422.00 -191.00Q422.00 -228.00 407.00 -250.50Q392.00 -273.00 360.00 -293.00L194.00 -394.00Q187.00 -398.00 181.00 -402.50Q175.00 -407.00 169.00 -412.00Q139.00 -395.00 114.50 -367.50Q90.00 -340.00 90.00 -303.00Q90.00 -268.00 115.50 -235.00Q141.00 -202.00 176.00 -181.00ZM144.00 -101.00Q96.00 -130.00 76.00 -164.00Q56.00 -198.00 56.00 -251.00Q56.00 -291.00 69.00 -320.50Q82.00 -350.00 99.00 -371.00Q116.00 -392.00 132.50 -404.00Q149.00 -416.00 157.00 -421.00Q148.00 -430.00 136.50 -442.00Q125.00 -454.00 115.50 -470.00Q106.00 -486.00 99.50 -506.00Q93.00 -526.00 93.00 -552.00Q93.00 -585.00 106.50 -616.50Q120.00 -648.00 145.50 -673.50Q171.00 -699.00 206.50 -714.50Q242.00 -730.00 287.00 -730.00Q359.00 -730.00 398.50 -697.00Q438.00 -664.00 438.00 -619.00Q438.00 -593.00 427.50 -578.50Q417.00 -564.00 390.00 -564.00Q368.00 -564.00 360.00 -573.50Q352.00 -583.00 352.00 -598.00Q352.00 -621.00 359.50 -634.50Q367.00 -648.00 367.00 -666.00Q367.00 -688.00 347.00 -702.00Q327.00 -716.00 287.00 -716.00Q254.00 -716.00 229.00 -705.50Q204.00 -695.00 187.50 -678.00Q171.00 -661.00 163.00 -638.50Q155.00 -616.00 155.00 -591.00Q155.00 -546.00 180.00 -517.00Q205.00 -488.00 242.00 -465.00L377.00 -383.00Q403.00 -367.00 420.00 -351.50Q437.00 -336.00 446.50 -319.50Q456.00 -303.00 460.00 -284.00Q464.00 -265.00 464.00 -241.00Q464.00 -208.00 453.00 -180.50Q442.00 -153.00 426.50 -131.50Q411.00 -110.00 393.00 -94.00Q375.00 -78.00 361.00 -66.00Q375.00 -55.00 389.50 -41.00Q404.00 -27.00 416.00 -9.00Q428.00 9.00 436.00 31.50Q444.00 54.00 444.00 81.00Q444.00 112.00 431.00 147.00Q418.00 182.00 393.00 211.50Q368.00 241.00 331.00 260.50Q294.00 280.00 245.00 280.00Q198.00 280.00 164.50 268.00Q131.00 256.00 109.00 237.50Q87.00 219.00 77.00 197.00Q67.00 175.00 67.00 155.00Q67.00 135.00 77.50 118.00Q88.00 101.00 114.00 101.00Q131.00 101.00 145.50 108.00Q160.00 115.00 160.00 137.00Q160.00 147.00 157.00 155.00Q154.00 163.00 150.00 170.50Q146.00 178.00 143.00 185.50Q140.00 193.00 140.00 202.00Q140.00 208.00 145.00 218.50Q150.00 229.00 162.00 239.50Q174.00 250.00 194.50 258.00Q215.00 266.00 247.00 266.00Q277.00 266.00 301.50 255.50Q326.00 245.00 343.50 225.50Q361.00 206.00 371.00 180.00Q381.00 154.00 381.00 122.00Q381.00 85.00 363.00 53.00Q345.00 21.00 301.00 -6.00Z" class="fg" transform="translate(224.41 318.82) scale(0.27921)"/><rect width="30" height="236.88" x="158.04" y="137.56" fill="#10161F" class="hot" rx="15"/></svg>